<?xml version="1.0" encoding="UTF-8"?>
<!DOCTYPE svg PUBLIC "-//W3C//DTD SVG 1.1//EN" "http://www.w3.org/Graphics/SVG/1.1/DTD/svg11.dtd">
<svg xmlns="http://www.w3.org/2000/svg" version="1.1" width="500px" height="500px" style="shape-rendering:geometricPrecision; text-rendering:geometricPrecision; image-rendering:optimizeQuality; fill-rule:evenodd; clip-rule:evenodd" xmlns:xlink="http://www.w3.org/1999/xlink">
<g><path style="opacity:1" fill="#48b771" d="M 271.5,15.5 C 279.737,16.5672 285.57,20.9005 289,28.5C 297.333,47.1667 305.667,65.8333 314,84.5C 315.006,89.155 313.339,92.4883 309,94.5C 297.847,69.5297 286.18,44.8631 274,20.5C 272.59,19.2125 271.09,18.0458 269.5,17C 270.416,16.7216 271.082,16.2216 271.5,15.5 Z"/></g>
<g><path style="opacity:1" fill="#2caf62" d="M 250.5,18.5 C 258.422,17.0494 265.255,19.0494 271,24.5C 282.811,48.1101 293.477,72.1101 303,96.5C 246.722,119.272 201.222,155.605 166.5,205.5C 138.644,211.856 121.144,228.856 114,256.5C 92.9959,211.496 72.8292,166.162 53.5,120.5C 54.0005,112.664 57.6671,106.83 64.5,103C 126.709,75.058 188.709,46.8913 250.5,18.5 Z M 195.5,65.5 C 195.932,66.7095 196.599,67.7095 197.5,68.5C 196.883,70.2292 195.883,71.7292 194.5,73C 176.282,81.8605 157.782,90.0271 139,97.5C 134.918,96.8413 133.584,94.508 135,90.5C 136.214,88.9512 137.714,87.7845 139.5,87C 156.619,79.6076 173.619,71.9409 190.5,64C 192.535,63.4014 194.201,63.9014 195.5,65.5 Z"/></g>
<g><path style="opacity:1" fill="#3cb36a" d="M 109.5,40.5 C 122.389,41.2671 127.222,47.9338 124,60.5C 116.613,69.1997 108.947,69.533 101,61.5C 96.739,51.6525 99.5723,44.6525 109.5,40.5 Z"/></g>
<g><path style="opacity:0.898" fill="#a0dab3" d="M 195.5,65.5 C 197.048,65.8212 197.715,66.8212 197.5,68.5C 196.599,67.7095 195.932,66.7095 195.5,65.5 Z"/></g>
<g><path style="opacity:0.999" fill="#a5dcff" d="M 249.5,193.5 C 246.833,194.167 245.167,195.833 244.5,198.5C 230.611,212.785 218.278,228.285 207.5,245C 218.17,266.317 214.17,284.317 195.5,299C 191.234,301.811 186.567,303.311 181.5,303.5C 177.303,303.194 175.303,305.194 175.5,309.5C 160.225,353.37 157.392,398.037 167,443.5C 170.923,457.279 175.59,470.612 181,483.5C 156.613,458.053 142.446,427.72 138.5,392.5C 136.997,370.802 137.33,349.135 139.5,327.5C 139.448,325.097 139.781,322.764 140.5,320.5C 142.13,316.774 143.13,312.774 143.5,308.5C 144.319,303.541 145.652,298.708 147.5,294C 142.164,288.161 138.831,281.328 137.5,273.5C 137.5,268.5 137.5,263.5 137.5,258.5C 140.719,243.445 149.719,233.612 164.5,229C 169.123,228.042 173.79,227.375 178.5,227C 215.201,170.638 265.534,131.971 329.5,111C 361.687,101.947 394.02,101.281 426.5,109C 431.383,110.072 436.05,111.739 440.5,114C 397.568,112.327 356.902,121.66 318.5,142C 293.081,155.918 270.081,173.085 249.5,193.5 Z"/></g>
<g><path style="opacity:1" fill="#34b166" d="M 376.5,137.5 C 395.298,137.464 403.798,146.798 402,165.5C 395.425,179.471 384.925,183.637 370.5,178C 357.643,167.666 356.31,155.999 366.5,143C 369.767,140.87 373.1,139.037 376.5,137.5 Z"/></g>
<g><path style="opacity:1" fill="#47b670" d="M 422.5,374.5 C 421.833,374.5 421.5,374.167 421.5,373.5C 426.346,366.398 427.513,358.732 425,350.5C 395.962,286.259 366.795,222.092 337.5,158C 342.023,155.505 345.857,156.338 349,160.5C 377.059,222.952 405.393,285.286 434,347.5C 437.587,356.784 435.754,364.95 428.5,372C 426.593,373.122 424.593,373.955 422.5,374.5 Z"/></g>
<g><path style="opacity:1" fill="#2aae61" d="M 274.5,200.5 C 276.749,199.92 278.415,198.587 279.5,196.5C 295.612,181.846 313.445,169.512 333,159.5C 362.608,224.381 391.941,289.381 421,354.5C 422.245,362.429 419.745,368.929 413.5,374C 350.404,403.215 287.071,431.882 223.5,460C 215.783,461.428 209.283,459.261 204,453.5C 185.261,414.376 181.261,373.709 192,331.5C 192.761,328.947 193.594,326.447 194.5,324C 227.872,308.756 240.539,283.256 232.5,247.5C 244.875,230.442 258.875,214.775 274.5,200.5 Z M 335.5,371.5 C 346.348,374.764 348.348,380.93 341.5,390C 321.295,399.853 300.795,409.019 280,417.5C 272.522,415.692 269.522,411.025 271,403.5C 272.167,401 274,399.167 276.5,398C 296.267,389.111 315.934,380.278 335.5,371.5 Z"/></g>
<g><path style="opacity:1" fill="#48b771" d="M 52.5,193.5 C 58.4707,192.141 62.1373,194.308 63.5,200C 61.6641,207.168 57.4974,209.002 51,205.5C 48.6603,201.052 49.1603,197.052 52.5,193.5 Z"/></g>
<g><path style="opacity:0.004" fill="#f3faff" d="M 249.5,193.5 C 248.167,195.5 246.5,197.167 244.5,198.5C 245.167,195.833 246.833,194.167 249.5,193.5 Z"/></g>
<g><path style="opacity:0.988" fill="#7fcc9a" d="M 279.5,196.5 C 278.415,198.587 276.749,199.92 274.5,200.5C 275.585,198.413 277.251,197.08 279.5,196.5 Z"/></g>
<g><path style="opacity:0.564" fill="#e5f5ff" d="M 137.5,258.5 C 137.5,263.5 137.5,268.5 137.5,273.5C 134.992,268.484 134.992,263.484 137.5,258.5 Z"/></g>
<g><path style="opacity:1" fill="#32b064" d="M 101.5,286.5 C 121.236,284.908 132.236,293.908 134.5,313.5C 131.638,333.186 120.305,341.686 100.5,339C 85.816,334.144 79.316,323.977 81,308.5C 83.5823,297.088 90.4157,289.755 101.5,286.5 Z"/></g>
<g><path style="opacity:0.006" fill="#f2faff" d="M 181.5,303.5 C 180.737,304.268 179.737,304.768 178.5,305C 177.601,306.652 176.601,308.152 175.5,309.5C 175.303,305.194 177.303,303.194 181.5,303.5 Z"/></g>
<g><path style="opacity:0.009" fill="#f9fcff" d="M 143.5,308.5 C 143.13,312.774 142.13,316.774 140.5,320.5C 140.502,316.126 141.502,312.126 143.5,308.5 Z"/></g>
<g><path style="opacity:0.795" fill="#d2edff" d="M 139.5,327.5 C 137.33,349.135 136.997,370.802 138.5,392.5C 134.852,370.728 135.185,349.061 139.5,327.5 Z"/></g>
<g><path style="opacity:0.502" fill="#bce5cc" d="M 421.5,373.5 C 421.5,374.167 421.833,374.5 422.5,374.5C 421.749,375.573 420.749,375.74 419.5,375C 420.044,374.283 420.711,373.783 421.5,373.5 Z"/></g>
</svg>
